
<svg version="1.1" id="Layer_1" xmlns="http://www.w3.org/2000/svg" xmlns:xlink="http://www.w3.org/1999/xlink" x="0px" y="0px"
	 width="261px" height="80px" viewBox="0 0 269.778 93.502" enable-background="new 0 0 269.778 93.502"
	 xml:space="preserve">
<g>
	<defs>
		<rect id="SVGID_1_" width="269.778" height="93.502"/>
	</defs>
	<clipPath id="SVGID_2_">
		<use xlink:href="#SVGID_1_"  overflow="visible"/>
	</clipPath>
	<g clip-path="url(#SVGID_2_)">
		<path fill="#FFFFFF" d="M96.417,45.894c0,16.753-9.425,31.405-23.503,39.42c-7.226,4.111-15.676,6.475-24.704,6.475
			C21.583,91.789,0,71.242,0,45.894C0,20.547,21.583,0,48.21,0c8.192,0,15.91,1.945,22.666,5.38
			c-3.055,2.409-5.413,5.588-6.74,9.226c-3.049-0.841-6.27-1.291-9.603-1.291c-19.01,0-34.417,14.671-34.417,32.766
			c0,18.094,15.407,32.767,34.417,32.767c6.758,0,13.062-1.854,18.381-5.062c9.638-5.807,16.036-16.044,16.036-27.705
			c0-0.409-0.008-0.818-0.024-1.225h7.478C96.412,45.201,96.417,45.546,96.417,45.894"/>
	</g>
	<g clip-path="url(#SVGID_2_)">
		<path fill="#FFFFFF" d="M78.681,44.581v5.239h10.043c-1.204,10.089-7.217,18.789-15.81,23.967v19.716h31.551V49.819v-4.963v-0.276
			H78.681z"/>
	</g>
	<g clip-path="url(#SVGID_2_)">
		<path fill="#FFFFFF" d="M65.789,46.655c0,7.22-6.147,13.071-13.73,13.071s-13.73-5.852-13.73-13.071
			c0-7.219,6.147-13.071,13.73-13.071S65.789,39.437,65.789,46.655"/>
	</g>
	<g clip-path="url(#SVGID_2_)">
		<path fill="#FFFFFF" d="M140.952,45.857c1.6-0.418,2.799-0.229,3.599,0.343c0.799,0.609,1.199,1.637,1.239,3.007
			c0.2,7.576-9.315,17.817-18.47,17.741c-3.158-0.038-6.756-1.865-7.116-7.767c-0.48-8.224,12.833-17.55,20.549-18.579
			c1.879-0.266,3.878,2.437,3.878,3.046c0,0.799-1.359,1.142-1.959,1.333c-0.64,0.229-1.199,0.533-1.76,0.837L140.952,45.857z
			 M129.239,54.461c-0.52,0-0.52-0.724-0.56-1.066c-2.239,2.133-4.438,5.178-4.438,8.3c0,1.333,0.6,2.475,2.119,2.475
			c2.239,0,5.717-1.599,7.396-2.97c5.357-4.34,8.396-8.984,8.515-11.764c0.04-0.914-0.52-1.865-1.559-1.865
			c-3.519,0-8.355,3.16-10.234,5.862C130.238,53.737,129.719,54.461,129.239,54.461z"/>
		<path fill="#FFFFFF" d="M163.063,59.22l0.319,1.675c-2.118,1.79-6.236,6.473-9.154,6.473c-1.52,0-2.239-1.219-2.239-2.513
			c0-2.284,2.159-4.797,3.438-6.549l-0.08-0.075c-2.319,1.637-4.357,3.616-6.157,5.824c-0.6,0.724-2.078,2.589-3.158,2.589
			c-1.759,0-2.198-2.398-2.238-3.692c-0.12-2.627,2.398-6.473,4.718-8.338c0.52-0.419,0.879-0.457,1.559-0.457
			c2.398,0.076,2.199,0.609,2.199,0.838c0,1.484-5.037,5.33-5.037,6.243c0,0.229,0.199,0.419,0.439,0.419
			c0.279,0,0.64-0.343,0.8-0.533c3.198-3.883,10.554-8.565,11.713-8.565c0.16,0,0.4,0.19,0.64,0.724c0.24,0.57,0.48,1.256,0.6,2.056
			c0,1.484-4.917,4.378-4.917,7.005c0,0.343,0.319,0.686,0.72,0.686c0.959,0,2.719-1.333,3.438-1.904L163.063,59.22z"/>
		<path fill="#FFFFFF" d="M175.459,61.123c-2.198,2.17-5.957,6.016-9.395,6.016c-2.919,0-3.559-2.703-3.559-4.949
			c0-3.997,1.8-8.3,4.398-11.345c3.518-4.15,7.315-7.691,8.595-7.691c0.68,0,0.84,0.914,0.8,1.409
			c-0.28,3.617-1.319,6.967-9.995,14.962c-0.359,0.647-0.479,1.713-0.279,2.627c0.359,0.876,0.919,1.637,1.999,1.637
			c2.198,0,5.277-2.437,6.876-3.807L175.459,61.123z M167.184,56.021c2.839-2.513,5.317-6.167,6.037-8.337
			c-1.959,0.913-4.238,4.34-6.117,8.261L167.184,56.021z"/>
		<path fill="#FFFFFF" d="M181.297,73.077c-0.4,0.419-1.52,1.904-2.159,1.904c-0.84,0-1.199-1.866-1.199-2.513
			c0-0.609,0.76-1.79,1.079-2.284l5.357-8.604l-0.08-0.076c-3.278,2.627-6.196,4.683-6.676,4.645
			c-1.12-0.076-3.039-1.675-3.159-4.492c-0.159-4.568,6.677-9.403,7.796-9.441c0.6,0,1.72,1.218,1.72,1.751
			c0,1.447-4.518,5.406-5.837,6.396c-0.48,0.646-0.72,1.408-0.76,2.208c2.119-0.229,4.038-1.866,5.717-3.351
			c4.117-3.616,6.676-6.243,7.436-6.357c0.68-0.114,1.08,1.37,1.08,1.903c0,0.99-1.08,2.551-1.64,3.351l-5.917,8.375l0.08,0.076
			l8.875-7.5l0.32,1.409L181.297,73.077z"/>
		<path fill="#FFFFFF" d="M206.005,61.085c-1.999,1.409-5.597,4.15-7.876,3.884c-3.158-0.343-4.478-2.665-4.478-5.33
			c0-3.274,2.599-7.31,4.917-9.594c2.759-2.894,9.995-8.262,21.029-9.442c0.759-0.076,1.199,0.076,1.639,0.647
			c0.439,0.571,0.72,1.713,0.72,2.437c0,0.99-0.84,1.561-1.64,2.056c-5.517,3.426-6.316,3.464-6.676,3.464
			c-0.32,0-0.52-0.229-0.52-0.533c0-0.38,0.799-0.913,1.079-1.104l1.679-1.294l-0.08-0.076
			c-11.953,3.35-19.069,12.639-18.629,14.542c0.199,0.8,0.52,1.447,1.398,1.447c0.84,0,2.039-0.686,2.719-1.181l14.632-10.583
			c0.24-0.229,0.56-0.495,0.92-0.495c0.359,0,1.159,0.457,1.479,0.647c0.439,0.229,0.999,0.532,0.999,1.027
			c0,0.381-0.399,1.028-0.56,1.333c-1.719,3.312-4.238,6.624-7.316,11.23l0.08,0.076l8.795-5.406c-0.08,1.676,0.2,1.979-5.236,5.482
			l-6.437,4.149c-1.64,2.132-7.676,8.376-10.395,8.376c-1,0-1.439-0.762-1.479-1.599c-0.12-2.551,3.438-5.939,7.356-7.767
			c2.438-2.97,4.757-6.054,6.396-9.403l-0.08-0.076L206.005,61.085z"/>
		<path fill="#FFFFFF" d="M231.554,61.809c-1.799,2.094-5.316,5.521-8.355,5.521c-2.358,0-3.438-2.589-3.438-4.53
			c0-4.645,4.997-9.176,7.396-9.176c0.68,0,1.76,0.229,1.76,1.066c0,1.903-3.958,5.292-5.638,6.396
			c-0.319,1.562,0.28,2.398,2.119,2.398c2.119,0,4.197-2.018,5.797-3.121L231.554,61.809z M227.716,51.225
			c0-1.561,1.919-2.931,3.479-2.931c0.72,0,1.319,0.494,1.319,1.18c0,1.522-1.479,3.389-3.198,3.389
			C228.355,52.862,227.716,52.139,227.716,51.225z"/>
		<path fill="#FFFFFF" d="M236.353,60.172c1.159,0.646,1.56,1.903,2.079,3.007l5.397-3.197l0.439,1.408
			c-1.6,1.371-3.198,2.703-5.157,3.617c0.16,0.723,0.08,1.408,0.04,2.094c-0.32,4.53-5.917,8.718-8.835,9.137
			c-1.839,0.267-2.359-3.274-2.359-4.53c0-2.475,1.72-5.482,2.799-7.652c-0.64-0.647-1.159-1.218-1.159-2.17
			c0-1.522,1.079-1.941,2.238-2.551c2.359-1.218,3.639-3.008,4.878-5.178c1.039-1.865,6.196-10.926,8.235-10.926
			c0.879,0,0.959,1.066,0.959,1.675c0,1.485-1.199,4.149-2.078,5.33L236.353,60.172z M236.193,65.729
			c-1.279,0.076-1.92,0.038-2.879-0.304c-1.039,1.675-1.679,3.045-1.839,4.302c-0.16,1.218,0.2,2.284,0.8,3.388
			C234.754,71.555,236.553,68.585,236.193,65.729z"/>
		<path fill="#FFFFFF" d="M257.662,50.883c-1.879,3.616-2.198,5.024-6.596,4.759c-1.359,1.675-3.639,4.797-3.639,7.081
			c0,0.837,0.28,1.332,1.199,1.332c1.279,0,2.719-1.142,6.877-3.959l0.199,1.675c-2.358,2.056-6.676,6.13-10.074,6.13
			c-1.559,0-2.519-1.028-2.519-2.551c0-1.257,0.52-2.703,1.039-3.808l-0.079-0.076l-2.039,1.562l-0.44-1.447
			c2.399-1.751,4.598-3.692,6.077-6.091c-2.438,0-1.679-0.152-3.798,0.152l0.439-0.686c2.159-3.351,2.479-3.96,6.757-4.111
			c1.199-1.562,2.078-3.351,4.397-3.351c0.52,0,1.279,0.114,1.279,0.724c0,0.685-1.159,1.941-1.56,2.475L257.662,50.883z"/>
		<path fill="#FFFFFF" d="M269.377,60.21l0.4,1.446c-2.439,2.322-6.797,5.787-9.995,5.635c-2.679-0.114-5.637-1.562-6.356-4.34
			c-0.239,0.228-0.52,0.494-0.879,0.494c-0.4,0-0.68-0.38-0.68-0.723c0-0.495,0.64-1.028,0.959-1.333l8.676-7.576
			c0.079-1.256,0.839-2.475,2.278-2.475c1.199,0,1.439,0.343,1.56,1.409c0.159,1.446,0.759,2.741,0.759,4.416
			c0,3.122-2.638,5.444-5.196,6.929c2.559,0.419,4.117-0.724,6.076-2.132L269.377,60.21z M255.785,61.009
			c1.479,0.076,2.358,1.257,3.118,2.246c2.398-1.408,3.038-2.056,3.158-4.264c-0.12-0.799-0.28-1.827-0.521-3.122L255.785,61.009z"
			/>
	</g>
	<g clip-path="url(#SVGID_2_)">
		<path fill="#FFFFFF" d="M120.303,91.206V78.388h1.103v1.778h0.134c0.136-0.279,0.323-0.565,0.561-0.858
			c0.238-0.293,0.553-0.541,0.947-0.743c0.393-0.203,0.889-0.304,1.488-0.304c0.808,0,1.514,0.201,2.12,0.604
			s1.077,0.965,1.415,1.688c0.338,0.722,0.507,1.563,0.507,2.521c0,0.963-0.169,1.807-0.507,2.531
			c-0.338,0.724-0.81,1.288-1.415,1.692c-0.605,0.405-1.308,0.607-2.107,0.607c-0.591,0-1.085-0.102-1.482-0.304
			c-0.397-0.202-0.718-0.452-0.963-0.749c-0.244-0.298-0.432-0.588-0.564-0.871h-0.102v5.226H120.303z M121.425,83.055
			c0,0.753,0.118,1.42,0.354,2c0.236,0.581,0.576,1.036,1.02,1.365c0.444,0.33,0.983,0.495,1.616,0.495
			c0.65,0,1.199-0.171,1.648-0.513c0.448-0.342,0.791-0.805,1.026-1.387c0.236-0.583,0.354-1.236,0.354-1.961
			c0-0.716-0.116-1.361-0.347-1.936c-0.232-0.574-0.573-1.03-1.023-1.368c-0.45-0.338-1.003-0.507-1.657-0.507
			c-0.638,0-1.179,0.162-1.625,0.488c-0.446,0.325-0.785,0.774-1.017,1.348C121.541,81.652,121.425,82.311,121.425,83.055z"/>
		<path fill="#FFFFFF" d="M131.07,87.71v-9.322h1.103v1.433h0.083c0.196-0.47,0.537-0.849,1.023-1.138
			c0.486-0.289,1.038-0.435,1.655-0.435c0.094,0,0.197,0.003,0.313,0.007c0.113,0.004,0.209,0.008,0.287,0.012v1.099
			c-0.053-0.008-0.141-0.021-0.27-0.036c-0.127-0.017-0.266-0.024-0.414-0.024c-0.51,0-0.963,0.102-1.36,0.307
			c-0.397,0.204-0.711,0.486-0.94,0.847c-0.229,0.359-0.344,0.771-0.344,1.231v6.021H131.07z"/>
		<path fill="#FFFFFF" d="M140.97,87.904c-0.846,0-1.593-0.204-2.24-0.613c-0.648-0.408-1.155-0.974-1.521-1.696
			c-0.366-0.722-0.549-1.557-0.549-2.503c0-0.955,0.183-1.796,0.549-2.521c0.365-0.727,0.872-1.293,1.521-1.7
			c0.647-0.406,1.395-0.609,2.24-0.609s1.592,0.204,2.237,0.613c0.646,0.408,1.153,0.975,1.521,1.699
			c0.368,0.724,0.552,1.563,0.552,2.519c0,0.946-0.183,1.781-0.548,2.503c-0.366,0.723-0.873,1.288-1.521,1.696
			C142.563,87.7,141.815,87.904,140.97,87.904z M140.97,86.915c0.68,0,1.256-0.174,1.728-0.522c0.472-0.348,0.83-0.811,1.074-1.39
			c0.244-0.578,0.366-1.216,0.366-1.911c0-0.696-0.122-1.336-0.366-1.918c-0.244-0.583-0.603-1.05-1.074-1.402
			c-0.472-0.352-1.048-0.527-1.728-0.527c-0.676,0-1.25,0.176-1.725,0.527c-0.474,0.353-0.833,0.819-1.077,1.402
			c-0.244,0.582-0.366,1.222-0.366,1.918c0,0.695,0.122,1.333,0.366,1.911c0.244,0.579,0.603,1.042,1.074,1.39
			C139.714,86.741,140.29,86.915,140.97,86.915z"/>
		<path fill="#FFFFFF" d="M147.772,87.71v-9.322h1.103v1.433h0.103c0.195-0.481,0.521-0.86,0.979-1.138s1.006-0.416,1.647-0.416
			c0.676,0,1.231,0.15,1.667,0.452s0.762,0.715,0.979,1.241h0.083c0.221-0.518,0.581-0.93,1.081-1.235
			c0.499-0.306,1.105-0.458,1.819-0.458c0.91,0,1.628,0.272,2.155,0.816c0.526,0.544,0.79,1.338,0.79,2.382v6.245h-1.135v-6.245
			c0-0.736-0.197-1.288-0.593-1.656s-0.916-0.553-1.562-0.553c-0.748,0-1.324,0.219-1.728,0.655
			c-0.404,0.438-0.605,0.991-0.605,1.663v6.136h-1.16v-6.342c0-0.632-0.186-1.142-0.555-1.529c-0.37-0.389-0.891-0.583-1.563-0.583
			c-0.45,0-0.855,0.105-1.214,0.315c-0.359,0.211-0.642,0.503-0.848,0.877c-0.207,0.374-0.31,0.805-0.31,1.29v5.972H147.772z"/>
		<path fill="#FFFFFF" d="M166.979,87.904c-0.846,0-1.593-0.204-2.24-0.613c-0.648-0.408-1.155-0.974-1.521-1.696
			c-0.366-0.722-0.549-1.557-0.549-2.503c0-0.955,0.183-1.796,0.549-2.521c0.365-0.727,0.872-1.293,1.521-1.7
			c0.647-0.406,1.395-0.609,2.24-0.609s1.592,0.204,2.237,0.613c0.646,0.408,1.153,0.975,1.521,1.699
			c0.368,0.724,0.552,1.563,0.552,2.519c0,0.946-0.183,1.781-0.548,2.503c-0.366,0.723-0.873,1.288-1.521,1.696
			C168.572,87.7,167.825,87.904,166.979,87.904z M166.979,86.915c0.68,0,1.256-0.174,1.728-0.522c0.472-0.348,0.83-0.811,1.074-1.39
			c0.244-0.578,0.366-1.216,0.366-1.911c0-0.696-0.122-1.336-0.366-1.918c-0.244-0.583-0.603-1.05-1.074-1.402
			c-0.472-0.352-1.048-0.527-1.728-0.527c-0.676,0-1.25,0.176-1.725,0.527c-0.474,0.353-0.833,0.819-1.077,1.402
			c-0.244,0.582-0.366,1.222-0.366,1.918c0,0.695,0.122,1.333,0.366,1.911c0.244,0.579,0.603,1.042,1.074,1.39
			C165.724,86.741,166.3,86.915,166.979,86.915z"/>
		<path fill="#FFFFFF" d="M177.638,78.388v0.941h-4.673v-0.941H177.638z M174.425,76.154h1.142v9.122c0,0.389,0.07,0.692,0.21,0.913
			c0.141,0.221,0.323,0.377,0.549,0.468c0.225,0.091,0.465,0.137,0.72,0.137c0.149,0,0.276-0.01,0.383-0.027
			c0.106-0.019,0.199-0.038,0.28-0.058l0.242,0.977c-0.11,0.041-0.246,0.078-0.408,0.112c-0.161,0.034-0.36,0.052-0.599,0.052
			c-0.417,0-0.817-0.087-1.202-0.261s-0.7-0.434-0.946-0.777s-0.37-0.771-0.37-1.28V76.154z"/>
		<path fill="#FFFFFF" d="M184.082,87.904c-0.914,0-1.704-0.203-2.372-0.61c-0.667-0.406-1.182-0.971-1.546-1.693
			c-0.363-0.722-0.545-1.554-0.545-2.497c0-0.938,0.182-1.773,0.545-2.503c0.364-0.73,0.867-1.303,1.512-1.718
			c0.644-0.415,1.389-0.622,2.234-0.622c0.531,0,1.043,0.092,1.536,0.276c0.493,0.184,0.936,0.465,1.329,0.843
			c0.393,0.379,0.704,0.854,0.934,1.427s0.345,1.249,0.345,2.03v0.534h-7.65v-0.953h6.49c0-0.599-0.127-1.138-0.38-1.617
			s-0.604-0.859-1.052-1.139c-0.448-0.278-0.966-0.418-1.552-0.418c-0.621,0-1.167,0.157-1.639,0.473
			c-0.472,0.316-0.841,0.732-1.106,1.251c-0.266,0.518-0.4,1.084-0.404,1.699v0.57c0,0.74,0.135,1.387,0.404,1.938
			c0.271,0.553,0.653,0.98,1.151,1.284c0.497,0.304,1.085,0.455,1.766,0.455c0.463,0,0.87-0.069,1.221-0.206
			c0.351-0.138,0.646-0.323,0.886-0.556s0.422-0.488,0.545-0.768l1.078,0.334c-0.149,0.393-0.393,0.754-0.73,1.086
			s-0.759,0.598-1.262,0.798C185.315,87.804,184.736,87.904,184.082,87.904z"/>
		<path fill="#FFFFFF" d="M191.451,87.801c-0.251,0-0.467-0.086-0.647-0.258s-0.271-0.377-0.271-0.616
			c0-0.242,0.09-0.449,0.271-0.619s0.396-0.255,0.647-0.255c0.255,0,0.472,0.085,0.65,0.255s0.268,0.377,0.268,0.619
			c0,0.158-0.041,0.304-0.124,0.438c-0.083,0.133-0.193,0.239-0.332,0.318C191.775,87.762,191.621,87.801,191.451,87.801z"/>
		<path fill="#FFFFFF" d="M196.264,87.801c-0.251,0-0.467-0.086-0.647-0.258s-0.271-0.377-0.271-0.616
			c0-0.242,0.09-0.449,0.271-0.619s0.396-0.255,0.647-0.255c0.255,0,0.472,0.085,0.65,0.255s0.268,0.377,0.268,0.619
			c0,0.158-0.041,0.304-0.124,0.438c-0.083,0.133-0.193,0.239-0.332,0.318C196.588,87.762,196.434,87.801,196.264,87.801z"/>
		<path fill="#FFFFFF" d="M201.076,87.801c-0.251,0-0.467-0.086-0.647-0.258s-0.271-0.377-0.271-0.616
			c0-0.242,0.09-0.449,0.271-0.619s0.396-0.255,0.647-0.255c0.255,0,0.472,0.085,0.65,0.255s0.268,0.377,0.268,0.619
			c0,0.158-0.041,0.304-0.124,0.438c-0.083,0.133-0.193,0.239-0.332,0.318C201.4,87.762,201.246,87.801,201.076,87.801z"/>
		<path fill="#FFFFFF" d="M205.89,87.801c-0.251,0-0.467-0.086-0.647-0.258s-0.271-0.377-0.271-0.616
			c0-0.242,0.09-0.449,0.271-0.619s0.396-0.255,0.647-0.255c0.255,0,0.472,0.085,0.65,0.255s0.268,0.377,0.268,0.619
			c0,0.158-0.041,0.304-0.124,0.438c-0.083,0.133-0.193,0.239-0.332,0.318C206.214,87.762,206.06,87.801,205.89,87.801z"/>
		<path fill="#FFFFFF" d="M221.425,80.434l-1.039,0.279c-0.103-0.279-0.247-0.532-0.434-0.759c-0.188-0.227-0.431-0.407-0.73-0.54
			c-0.299-0.134-0.67-0.2-1.112-0.2c-0.663,0-1.207,0.149-1.632,0.448c-0.425,0.3-0.638,0.687-0.638,1.159
			c0,0.401,0.146,0.726,0.438,0.975c0.291,0.249,0.74,0.446,1.348,0.592l1.479,0.346c0.819,0.19,1.435,0.491,1.845,0.904
			s0.615,0.931,0.615,1.554c0,0.526-0.152,0.993-0.459,1.402c-0.306,0.408-0.731,0.729-1.277,0.962
			c-0.547,0.232-1.179,0.349-1.896,0.349c-0.957,0-1.745-0.205-2.365-0.616c-0.621-0.41-1.019-1.004-1.192-1.781l1.09-0.255
			c0.141,0.555,0.416,0.974,0.826,1.257s0.95,0.425,1.622,0.425c0.752,0,1.354-0.161,1.804-0.483
			c0.451-0.321,0.676-0.725,0.676-1.21c0-0.377-0.132-0.693-0.395-0.95c-0.264-0.257-0.663-0.446-1.199-0.567l-1.6-0.364
			c-0.851-0.194-1.479-0.502-1.887-0.923c-0.408-0.42-0.612-0.942-0.612-1.565c0-0.514,0.146-0.966,0.439-1.356
			c0.294-0.391,0.697-0.696,1.212-0.919c0.514-0.223,1.101-0.334,1.759-0.334c0.896,0,1.614,0.193,2.151,0.579
			C220.799,79.227,221.187,79.758,221.425,80.434z"/>
		<path fill="#FFFFFF" d="M224.051,87.71v-9.322h1.103v1.433h0.103c0.195-0.481,0.521-0.86,0.979-1.138s1.006-0.416,1.647-0.416
			c0.676,0,1.231,0.15,1.667,0.452s0.762,0.715,0.979,1.241h0.083c0.221-0.518,0.581-0.93,1.081-1.235
			c0.499-0.306,1.105-0.458,1.819-0.458c0.91,0,1.628,0.272,2.155,0.816c0.526,0.544,0.79,1.338,0.79,2.382v6.245h-1.135v-6.245
			c0-0.736-0.197-1.288-0.593-1.656s-0.916-0.553-1.562-0.553c-0.748,0-1.324,0.219-1.728,0.655
			c-0.404,0.438-0.605,0.991-0.605,1.663v6.136h-1.16v-6.342c0-0.632-0.186-1.142-0.555-1.529c-0.37-0.389-0.891-0.583-1.563-0.583
			c-0.45,0-0.855,0.105-1.214,0.315c-0.359,0.211-0.642,0.503-0.848,0.877c-0.207,0.374-0.31,0.805-0.31,1.29v5.972H224.051z"/>
		<path fill="#FFFFFF" d="M242.187,87.923c-0.59,0-1.13-0.11-1.619-0.331c-0.488-0.221-0.877-0.54-1.166-0.959
			s-0.434-0.928-0.434-1.526c0-0.461,0.091-0.85,0.274-1.165c0.183-0.315,0.441-0.575,0.777-0.777s0.733-0.361,1.192-0.479
			c0.459-0.117,0.965-0.208,1.517-0.272c0.549-0.065,1.013-0.122,1.394-0.17c0.38-0.049,0.67-0.126,0.87-0.231
			c0.199-0.104,0.3-0.274,0.3-0.51v-0.218c0-0.636-0.199-1.136-0.597-1.502s-0.968-0.55-1.712-0.55c-0.705,0-1.28,0.147-1.724,0.443
			c-0.444,0.295-0.756,0.644-0.935,1.044l-1.077-0.37c0.221-0.51,0.527-0.918,0.918-1.224c0.391-0.305,0.829-0.525,1.313-0.661
			s0.976-0.203,1.473-0.203c0.374,0,0.764,0.047,1.17,0.14c0.405,0.093,0.782,0.254,1.131,0.482s0.632,0.546,0.849,0.953
			c0.216,0.406,0.324,0.921,0.324,1.544v6.33h-1.134v-1.475h-0.07c-0.137,0.275-0.338,0.542-0.605,0.801
			c-0.269,0.259-0.604,0.472-1.008,0.638C243.205,87.84,242.73,87.923,242.187,87.923z M242.34,86.934
			c0.604,0,1.126-0.128,1.568-0.383s0.783-0.594,1.023-1.017s0.36-0.889,0.36-1.398v-1.348c-0.086,0.077-0.227,0.146-0.425,0.206
			c-0.197,0.061-0.425,0.114-0.682,0.161s-0.514,0.086-0.769,0.118s-0.484,0.061-0.688,0.085c-0.552,0.064-1.024,0.166-1.415,0.304
			s-0.69,0.326-0.898,0.567c-0.209,0.24-0.313,0.549-0.313,0.926c0,0.566,0.212,1.004,0.638,1.313
			C241.165,86.778,241.698,86.934,242.34,86.934z"/>
		<path fill="#FFFFFF" d="M249.441,87.71v-9.322h1.103v1.433h0.083c0.195-0.47,0.537-0.849,1.023-1.138s1.038-0.435,1.654-0.435
			c0.094,0,0.197,0.003,0.313,0.007c0.114,0.004,0.21,0.008,0.287,0.012v1.099c-0.052-0.008-0.141-0.021-0.269-0.036
			c-0.127-0.017-0.266-0.024-0.414-0.024c-0.51,0-0.964,0.102-1.361,0.307c-0.397,0.204-0.711,0.486-0.94,0.847
			c-0.229,0.359-0.344,0.771-0.344,1.231v6.021H249.441z"/>
		<path fill="#FFFFFF" d="M260.308,78.388v0.941h-4.673v-0.941H260.308z M257.095,76.154h1.142v9.122c0,0.389,0.07,0.692,0.21,0.913
			c0.141,0.221,0.323,0.377,0.549,0.468c0.225,0.091,0.465,0.137,0.72,0.137c0.149,0,0.276-0.01,0.383-0.027
			c0.106-0.019,0.199-0.038,0.28-0.058l0.242,0.977c-0.11,0.041-0.246,0.078-0.408,0.112c-0.161,0.034-0.36,0.052-0.599,0.052
			c-0.417,0-0.817-0.087-1.202-0.261s-0.7-0.434-0.946-0.777s-0.37-0.771-0.37-1.28V76.154z"/>
		<path fill="#FFFFFF" d="M263.789,87.801c-0.251,0-0.467-0.086-0.647-0.258s-0.271-0.377-0.271-0.616
			c0-0.242,0.09-0.449,0.271-0.619s0.396-0.255,0.647-0.255c0.255,0,0.472,0.085,0.65,0.255s0.268,0.377,0.268,0.619
			c0,0.158-0.041,0.304-0.124,0.438c-0.083,0.133-0.193,0.239-0.332,0.318C264.113,87.762,263.959,87.801,263.789,87.801z"/>
		<path fill="#FFFFFF" d="M268.602,87.801c-0.251,0-0.467-0.086-0.647-0.258s-0.271-0.377-0.271-0.616
			c0-0.242,0.09-0.449,0.271-0.619s0.396-0.255,0.647-0.255c0.255,0,0.472,0.085,0.65,0.255s0.268,0.377,0.268,0.619
			c0,0.158-0.041,0.304-0.124,0.438c-0.083,0.133-0.193,0.239-0.332,0.318C268.926,87.762,268.771,87.801,268.602,87.801z"/>
	</g>
</g>
</svg>
